<svg width="120" height="53" viewBox="0 0 120 53" xmlns="http://www.w3.org/2000/svg" style="width:120px;margin-left:3px;" data-v-7782ebe2=""><g fill-rule="nonzero" fill="none"><path d="M103.541 15.231c-2.902-1.594-5.709-3.43-8.516-5.169-2.854-1.787-5.709-3.527-8.706-5.12-2.997-1.595-6.09-3.044-9.563-3.962-.428-.097-.856-.194-1.332-.29l-.666-.145c-.238-.048-.476-.048-.666-.048C73.616.448 73.188.4 72.712.4l-1.38.097c-.475 0-.903.096-1.332.193-.428.096-.904.145-1.332.241-.856.242-1.712.435-2.521.725-4.044 1.401-7.707 3.333-11.323 5.266-3.616 1.98-7.137 4.106-10.705 5.99-1.665.918-2.76 2.126-2.474 2.947.333.773 2.094.725 3.854-.193 3.663-1.932 7.184-4.058 10.704-5.99 3.569-1.933 7.137-3.817 10.848-5.073.76-.29 1.522-.483 2.283-.676.381-.097.762-.145 1.142-.242.38-.048.761-.193 1.142-.193l1.094-.097c.38 0 .761.049 1.094.049.19 0 .381 0 .571.048l.571.096c.38.049.761.097 1.142.194 3.045.724 6.137 1.98 9.087 3.333 2.997 1.401 5.947 2.947 8.944 4.445 2.998 1.497 5.947 3.092 9.087 4.348.857.338 1.094-.29.333-.677zM61.625 21.2H45.098c-9.024 0-18.095.4-27.07 1.2-.57.05-.57.75 0 .8 8.975.8 18.046 1.2 27.07 1.2h16.527c1.33 0 2.375-.7 2.375-1.6 0-.9-1.045-1.6-2.375-1.6z" fill="#E34A4A"></path><path d="M12.01 38.091v8.544H8.46v-7.651c0-1.891-.698-2.837-2.094-2.837-.993 0-1.71.34-2.152 1.02-.442.679-.663 1.78-.663 3.305v6.163H0V28.4h3.551v3.715c0 .29-.028.97-.083 2.04l-.081 1.054h.186c.79-1.282 2.048-1.923 3.77-1.923 1.528 0 2.688.415 3.48 1.244.79.828 1.186 2.016 1.186 3.561zm6.483 1.97c0 1.297.211 2.277.634 2.94.422.665 1.111.997 2.066.997.945 0 1.626-.33 2.042-.99.415-.66.622-1.642.622-2.946 0-1.298-.21-2.27-.629-2.919-.42-.648-1.106-.972-2.059-.972-.947 0-1.63.322-2.05.965-.417.645-.626 1.62-.626 2.926zm8.994 0c0 2.133-.558 3.801-1.675 5.005-1.117 1.203-2.673 1.804-4.667 1.804-1.249 0-2.35-.276-3.305-.828-.954-.55-1.687-1.34-2.2-2.37-.512-1.033-.768-2.236-.768-3.61 0-2.141.555-3.805 1.664-4.992 1.11-1.19 2.67-1.784 4.678-1.784 1.25 0 2.351.274 3.306.821.955.547 1.688 1.333 2.2 2.357.511 1.022.767 2.222.767 3.598zm14.582 0v6.574h-3.548v-7.651c0-.946-.158-1.655-.472-2.129-.315-.472-.81-.708-1.485-.708-.907 0-1.567.336-1.978 1.008-.41.672-.615 1.778-.615 3.317v6.163H30.42V33.534h2.712l.476 1.675h.198c.35-.602.854-1.072 1.514-1.411.66-.341 1.415-.512 2.269-.512 1.948 0 3.266.641 3.956 1.923h.315c.35-.61.863-1.083 1.542-1.419.678-.336 1.444-.504 2.297-.504 1.475 0 2.59.382 3.346 1.145.757.762 1.135 1.982 1.135 3.66v8.544h-3.561v-7.651c0-.946-.157-1.655-.472-2.129-.313-.472-.807-.708-1.482-.708-.87 0-1.52.313-1.95.939-.43.624-.646 1.616-.646 2.976zm17.142-4.23c-.753 0-1.343.24-1.769.72-.427.481-.672 1.163-.734 2.044h4.981c-.015-.881-.244-1.563-.686-2.045-.442-.48-1.039-.72-1.792-.72zm.5 11.04c-2.094 0-3.731-.583-4.912-1.748-1.179-1.163-1.768-2.811-1.768-4.944 0-2.197.545-3.894 1.635-5.093 1.09-1.2 2.597-1.8 4.521-1.8 1.838 0 3.27.528 4.295 1.584 1.025 1.055 1.537 2.512 1.537 4.37v1.736h-8.392c.038 1.014.337 1.807.896 2.378.56.57 1.343.855 2.35.855.784 0 1.525-.082 2.224-.245a11.21 11.21 0 002.188-.785v2.765a8.316 8.316 0 01-1.99.696c-.706.153-1.567.23-2.584.23zm11.498-.33l-5.167-13.007h3.887l2.455 7.37c.21.642.353 1.4.431 2.275h.07c.085-.805.252-1.563.5-2.275l2.41-7.37h3.803L74.095 48.31c-.504 1.368-1.223 2.392-2.16 3.072-.934.679-2.025 1.018-3.274 1.018a8.184 8.184 0 01-1.804-.2v-2.834c.426.101.891.152 1.397.152.627 0 1.176-.194 1.646-.581.47-.386.835-.97 1.1-1.752l.209-.643zm19.33-3.796c0 1.344-.464 2.367-1.392 3.07-.927.703-2.313 1.055-4.16 1.055-.946 0-1.753-.064-2.42-.194a8.969 8.969 0 01-1.874-.569v-2.952c.66.312 1.402.574 2.229.785.826.211 1.553.317 2.183.317 1.287 0 1.93-.375 1.93-1.126 0-.281-.085-.51-.255-.686-.172-.175-.466-.374-.884-.598-.42-.222-.979-.481-1.678-.777-1-.423-1.734-.814-2.205-1.174-.468-.358-.81-.77-1.024-1.236-.213-.464-.32-1.036-.32-1.716 0-1.165.448-2.066 1.344-2.702.897-.637 2.167-.956 3.811-.956 1.569 0 3.093.344 4.574 1.032l-1.07 2.578c-.652-.28-1.26-.51-1.828-.691a5.705 5.705 0 00-1.733-.269c-1.047 0-1.57.285-1.57.854 0 .322.168.6.505.833.338.235 1.077.583 2.216 1.044 1.017.413 1.762.8 2.236 1.16.473.36.822.774 1.046 1.243.226.468.338 1.027.338 1.675zm2.268 2.215c0-.656.175-1.152.524-1.488.35-.336.858-.504 1.525-.504.644 0 1.142.172 1.495.516.352.342.529.834.529 1.476 0 .616-.178 1.102-.534 1.46-.358.354-.854.532-1.49.532-.651 0-1.156-.174-1.513-.52-.357-.35-.536-.84-.536-1.472zm7.146-14.813c0-1.165.644-1.747 1.93-1.747 1.29 0 1.934.582 1.934 1.747 0 .555-.162.987-.484 1.294-.321.309-.804.463-1.45.463-1.286 0-1.93-.586-1.93-1.757zm3.702 3.387v13.101h-3.552V33.534h3.552zm6.55 6.528c0 1.296.212 2.276.635 2.94.422.664 1.111.996 2.066.996.945 0 1.626-.33 2.042-.99.415-.66.622-1.642.622-2.946 0-1.298-.21-2.27-.629-2.919-.42-.648-1.106-.972-2.059-.972-.947 0-1.63.322-2.05.965-.417.645-.626 1.62-.626 2.926zm8.995 0c0 2.132-.558 3.8-1.675 5.004-1.117 1.203-2.673 1.804-4.667 1.804-1.249 0-2.35-.276-3.305-.828-.954-.55-1.687-1.34-2.2-2.37-.512-1.033-.768-2.236-.768-3.61 0-2.141.555-3.805 1.664-4.992 1.11-1.19 2.67-1.784 4.678-1.784 1.25 0 2.351.274 3.306.821.955.547 1.688 1.333 2.2 2.357.511 1.022.767 2.222.767 3.598z" fill="#fff"></path></g></svg>